<svg width="220" height="292" viewBox="0 0 220 292" fill="none" xmlns="http://www.w3.org/2000/svg">
<path fill-rule="evenodd" clip-rule="evenodd" d="M0 2.78095V289.219C0 289.31 0.004414 289.401 0.013242 289.492C0.02207 289.582 0.0352695 289.672 0.0528404 289.761C0.0704115 289.851 0.0922693 289.94 0.118414 290.027C0.144559 290.114 0.174865 290.199 0.209331 290.283C0.243798 290.367 0.28226 290.45 0.324716 290.53C0.367173 290.61 0.413421 290.688 0.463459 290.764C0.513497 290.84 0.567084 290.913 0.624221 290.984C0.681359 291.054 0.74177 291.121 0.805456 291.185C0.869142 291.25 0.935796 291.311 1.00542 291.369C1.07504 291.426 1.14729 291.48 1.22218 291.531C1.29707 291.581 1.37423 291.628 1.45366 291.672C1.53309 291.715 1.61441 291.753 1.69762 291.789C1.78083 291.823 1.86553 291.854 1.95172 291.88C2.0379 291.906 2.12516 291.929 2.2135 291.947C2.30184 291.965 2.39083 291.978 2.48046 291.986C2.57009 291.995 2.65994 292 2.75 292H217.25C217.34 292 217.43 291.995 217.52 291.986C217.609 291.978 217.698 291.965 217.786 291.947C217.875 291.929 217.963 291.906 218.049 291.88C218.135 291.854 218.219 291.823 218.302 291.789C218.385 291.753 218.467 291.715 218.547 291.672C218.625 291.628 218.702 291.581 218.778 291.531C218.853 291.48 218.925 291.426 218.995 291.369C219.065 291.311 219.131 291.25 219.194 291.185C219.258 291.121 219.319 291.054 219.376 290.984C219.433 290.913 219.486 290.84 219.537 290.764C219.587 290.688 219.633 290.61 219.676 290.53C219.718 290.45 219.756 290.367 219.791 290.283C219.825 290.199 219.855 290.114 219.882 290.027C219.907 289.94 219.929 289.851 219.948 289.761C219.965 289.672 219.978 289.582 219.986 289.492C219.995 289.401 220 289.31 220 289.219V59.7905C220 59.7413 219.999 59.6921 219.996 59.643L219.946 35.4612C219.938 29.5557 217.64 23.8869 213.542 19.6626L203.851 9.68032C197.864 3.49496 189.651 0.00460235 181.072 0H2.75C2.65994 0 2.57009 0.00446368 2.48046 0.0133911C2.39083 0.0223184 2.30184 0.0356665 2.2135 0.0534352C2.12516 0.071204 2.0379 0.0933079 1.95172 0.119747C1.86553 0.146186 1.78083 0.176833 1.69762 0.211688C1.61441 0.246542 1.53309 0.285437 1.45366 0.328371C1.37423 0.371306 1.29707 0.418074 1.22218 0.468675C1.14729 0.519277 1.07504 0.573467 1.00542 0.631247C0.935796 0.689028 0.869142 0.750119 0.805456 0.814521C0.74177 0.878925 0.681359 0.946329 0.624221 1.01673C0.567084 1.08714 0.513497 1.16021 0.463459 1.23594C0.413421 1.31167 0.367173 1.3897 0.324716 1.47003C0.28226 1.55035 0.243798 1.63258 0.209331 1.71672C0.174865 1.80088 0.144559 1.88653 0.118414 1.97368C0.0922693 2.06084 0.0704115 2.14908 0.0528404 2.23842C0.0352695 2.32775 0.02207 2.41774 0.013242 2.50838C0.004414 2.59902 0 2.68988 0 2.78095Z" fill="#F7F7F7"/>
</svg>
