<svg width="21" height="20" viewBox="0 0 21 20" fill="none" xmlns="http://www.w3.org/2000/svg">
<g clip-path="url(#clip0_146_1782)">
<path d="M10.6621 1.07455C10.8992 1.07455 11.1317 1.14074 11.333 1.26596C11.5343 1.39115 11.6969 1.56998 11.8018 1.78256L13.8564 5.9476L18.4551 6.61557C18.6772 6.64779 18.8867 6.7387 19.0625 6.87827C19.2383 7.01788 19.3743 7.20138 19.4561 7.41049C19.5378 7.61961 19.5619 7.84687 19.5273 8.0687C19.4927 8.29042 19.4002 8.49895 19.2588 8.67319C19.2523 8.68114 19.2452 8.68908 19.2383 8.69662L19.1797 8.76108C19.1732 8.76813 19.166 8.77589 19.1592 8.78256L15.8262 12.0247L16.6133 16.6048C16.6515 16.8268 16.6298 17.055 16.5508 17.266C16.4717 17.477 16.3379 17.6638 16.1631 17.806C15.9883 17.9482 15.7783 18.041 15.5557 18.0755C15.3331 18.11 15.1051 18.0848 14.8955 18.0023C14.8867 17.9988 14.8777 17.9945 14.8691 17.9906L14.793 17.9554C14.7848 17.9517 14.7765 17.9479 14.7686 17.9437L10.666 15.7816L6.55469 17.9437C6.35552 18.0485 6.13207 18.0991 5.90723 18.0892C5.68232 18.0793 5.46362 18.0091 5.27441 17.8871C5.08544 17.7651 4.93186 17.5954 4.83008 17.3949C4.72823 17.1941 4.68201 16.9692 4.69531 16.7445L4.69727 16.7152L4.70801 16.6312L4.71094 16.6048L5.49609 12.0247L2.16699 8.78256C2.00572 8.62597 1.88858 8.42974 1.82812 8.21323C1.76774 7.99685 1.76553 7.76848 1.82227 7.55112C1.87908 7.33368 1.9928 7.13517 2.15137 6.97592C2.31002 6.81665 2.5083 6.70157 2.72559 6.64389L2.75391 6.63705L2.84082 6.61948L2.86914 6.61459L7.4668 5.9476L9.52246 1.78256C9.62727 1.56997 9.78996 1.39117 9.99121 1.26596C10.1925 1.14073 10.425 1.07458 10.6621 1.07455Z" stroke="#D0C525" stroke-width="1.01619" stroke-linecap="round" stroke-linejoin="round"/>
<path d="M10.6611 1.58203C10.7796 1.58203 10.8955 1.61142 11.001 1.66406V15.3838L10.666 15.208L6.31738 17.4941C6.19791 17.557 6.06358 17.587 5.92871 17.5811C5.79376 17.5751 5.66235 17.5332 5.54883 17.46C5.43554 17.3868 5.34327 17.2853 5.28222 17.165C5.22111 17.0446 5.19319 16.9093 5.20117 16.7744L5.21093 16.6914L6.04199 11.8477L2.51953 8.41895C2.42283 8.32506 2.35271 8.20694 2.3164 8.07715C2.28017 7.9474 2.27853 7.81004 2.3125 7.67969C2.3466 7.54918 2.41555 7.42955 2.51074 7.33398C2.60582 7.23863 2.72435 7.17034 2.85449 7.13574L2.94043 7.11816L7.80371 6.41309L9.97754 2.00781C10.0404 1.88018 10.138 1.77242 10.2588 1.69727C10.3795 1.62217 10.5189 1.58206 10.6611 1.58203Z" fill="#F8F3AB"/>
</g>
<defs>
<clipPath id="clip0_146_1782">
<rect width="20" height="20" fill="white" transform="translate(0.666992)"/>
</clipPath>
</defs>
</svg>
