<svg width="20" height="20" viewBox="0 0 20 20" fill="none" xmlns="http://www.w3.org/2000/svg">
<path d="M9.99512 1.07455C10.2322 1.07455 10.4647 1.14074 10.666 1.26596C10.8673 1.39115 11.0299 1.56998 11.1348 1.78256L13.1895 5.9476L17.7881 6.61557C18.0102 6.64779 18.2197 6.7387 18.3955 6.87827C18.5713 7.01788 18.7074 7.20138 18.7891 7.41049C18.8708 7.61961 18.895 7.84687 18.8604 8.0687C18.8257 8.29042 18.7332 8.49895 18.5918 8.67319C18.5853 8.68114 18.5782 8.68908 18.5713 8.69662L18.5127 8.76108C18.5062 8.76813 18.499 8.77589 18.4922 8.78256L15.1592 12.0247L15.9463 16.6048C15.9845 16.8268 15.9628 17.055 15.8838 17.266C15.8047 17.477 15.6709 17.6638 15.4961 17.806C15.3213 17.9482 15.1113 18.041 14.8887 18.0755C14.6661 18.11 14.4381 18.0848 14.2285 18.0023C14.2197 17.9988 14.2107 17.9945 14.2021 17.9906L14.126 17.9554C14.1179 17.9517 14.1095 17.9479 14.1016 17.9437L9.99902 15.7816L5.8877 17.9437C5.68853 18.0485 5.46508 18.0991 5.24023 18.0892C5.01533 18.0793 4.79663 18.0091 4.60742 17.8871C4.41845 17.7651 4.26487 17.5954 4.16309 17.3949C4.06123 17.1941 4.01502 16.9692 4.02832 16.7445L4.03027 16.7152L4.04102 16.6312L4.04395 16.6048L4.8291 12.0247L1.5 8.78256C1.33872 8.62597 1.22159 8.42974 1.16113 8.21323C1.10075 7.99685 1.09853 7.76848 1.15527 7.55112C1.21209 7.33368 1.32581 7.13517 1.48438 6.97592C1.64303 6.81665 1.84131 6.70157 2.05859 6.64389L2.08691 6.63705L2.17383 6.61948L2.20215 6.61459L6.7998 5.9476L8.85547 1.78256C8.96028 1.56997 9.12297 1.39117 9.32422 1.26596C9.52555 1.14073 9.75802 1.07458 9.99512 1.07455Z" fill="#F8F3AB" stroke="#D0C525" stroke-width="1.01619" stroke-linecap="round" stroke-linejoin="round"/>
</svg>
