<svg width="20" height="20" viewBox="0 0 20 20" fill="none" xmlns="http://www.w3.org/2000/svg">
<path d="M16.868 4.32156C15.6048 3.74489 14.2503 3.32156 12.8337 3.08823C12.8159 3.08823 12.7981 3.09712 12.7892 3.11489C12.6181 3.42156 12.4292 3.82156 12.2959 4.13712C10.7792 3.91934 9.27143 3.91934 7.79365 4.13712C7.66032 3.81267 7.46254 3.42156 7.29032 3.11489C7.28143 3.09712 7.26365 3.08823 7.24587 3.08823C5.82921 3.32156 4.47476 3.74489 3.21254 4.32156C3.20476 4.32156 3.19698 4.32934 3.19254 4.33712C0.467619 8.44489 -0.279825 12.4449 0.0868085 16.4005C0.0868085 16.4171 0.0957063 16.4338 0.108603 16.4449C1.82921 17.7071 3.48587 18.4449 5.11143 18.9338C5.12921 18.9338 5.14698 18.9271 5.15587 18.9116C5.53921 18.3783 5.87921 17.8171 6.16921 17.2271C6.18254 17.1982 6.16921 17.1649 6.13921 17.1538C5.59921 16.9449 5.08587 16.6938 4.59032 16.4005C4.55587 16.3805 4.55587 16.3294 4.58587 16.3049C4.69921 16.2227 4.81254 16.136 4.92143 16.0494C4.93476 16.0383 4.95254 16.0338 4.96921 16.0427C8.24587 17.5427 11.7792 17.5427 15.017 16.0427C15.0337 16.0338 15.0515 16.0383 15.0648 16.0494C15.1737 16.136 15.287 16.2227 15.4004 16.3049C15.4304 16.3294 15.4304 16.3805 15.3959 16.4005C14.9004 16.7027 14.387 16.9449 13.847 17.1538C13.817 17.1649 13.8048 17.1982 13.817 17.2271C14.117 17.8171 14.457 18.3783 14.8304 18.9116C14.8392 18.9271 14.857 18.9338 14.8748 18.9338C16.5092 18.4449 18.167 17.7071 19.8876 16.4449C19.9004 16.4338 19.9092 16.4171 19.9092 16.4005C20.3448 11.8227 19.1626 7.85823 16.9026 4.33712C16.8981 4.32934 16.8904 4.32156 16.8826 4.32156H16.868ZM6.67921 14.0449C5.69921 14.0449 4.89032 13.1449 4.89032 12.0449C4.89032 10.9449 5.68143 10.0449 6.67921 10.0449C7.68587 10.0449 8.48587 10.9538 8.46809 12.0449C8.46809 13.1449 7.67698 14.0449 6.67921 14.0449ZM13.4092 14.0449C12.4292 14.0449 11.6204 13.1449 11.6204 12.0449C11.6204 10.9449 12.4115 10.0449 13.4092 10.0449C14.4159 10.0449 15.2159 10.9538 15.1981 12.0449C15.1981 13.1449 14.4159 14.0449 13.4092 14.0449Z" fill="#000000"/>
</svg>