<svg width="18" height="19" viewBox="0 0 18 19" fill="none" xmlns="http://www.w3.org/2000/svg">
<g clip-path="url(#clip0_45_580)">
<path d="M16 0.5H2C0.9 0.5 0 1.4 0 2.5V16.5C0 17.601 0.9 18.5 2 18.5H9V11.5H7V9.025H9V6.975C9 4.811 10.212 3.291 12.766 3.291L14.569 3.293V5.898H13.372C12.378 5.898 12 6.644 12 7.336V9.026H14.568L14 11.5H12V18.5H16C17.1 18.5 18 17.601 18 16.5V2.5C18 1.4 17.1 0.5 16 0.5Z" fill="#3D3D3D"/>
</g>
<defs>
<clipPath id="clip0_45_580">
<rect width="18" height="18" fill="white" transform="translate(0 0.5)"/>
</clipPath>
</defs>
</svg>
