<svg width="18" height="19" viewBox="0 0 18 19" fill="none" xmlns="http://www.w3.org/2000/svg">
<g clip-path="url(#clip0_45_594)">
<path d="M17.9459 5.78931C17.9309 5.04269 17.7895 4.30401 17.5275 3.60468C17.3015 3.00414 16.9473 2.46012 16.4894 2.01056C16.0399 1.55272 15.4959 1.19846 14.8953 0.97247C14.196 0.710542 13.4573 0.569094 12.7107 0.55414C11.7507 0.51038 11.4443 0.5 9 0.5C6.55573 0.5 6.24927 0.51038 5.28931 0.55414C4.54269 0.569094 3.80401 0.710542 3.10468 0.97247C2.50414 1.19846 1.96012 1.55272 1.51056 2.01056C1.05272 2.46012 0.698461 3.00414 0.47247 3.60468C0.210542 4.30401 0.0690936 5.04269 0.05414 5.78931C0.01038 6.74927 0 7.05573 0 9.5C0 11.9443 0.01038 12.2507 0.05414 13.2107C0.0690936 13.9573 0.210542 14.696 0.47247 15.3953C0.698461 15.9959 1.05272 16.5399 1.51056 16.9894C1.96011 17.4473 2.50413 17.8016 3.10468 18.0275C3.80401 18.2895 4.54269 18.4309 5.28931 18.4459C6.24927 18.4897 6.55573 18.5 9 18.5C11.4443 18.5 11.7507 18.4897 12.7107 18.4459C13.4573 18.4309 14.196 18.2895 14.8953 18.0275C16.1043 17.56 17.06 16.6043 17.5275 15.3953C17.7894 14.696 17.9309 13.9573 17.9459 13.2107C17.9896 12.2507 18 11.9443 18 9.5C18 7.05573 17.9896 6.74927 17.9459 5.78931ZM16.3259 13.1368C16.3192 13.7075 16.2143 14.2728 16.016 14.8079C15.7132 15.5928 15.0928 16.2133 14.3079 16.516C13.7728 16.7143 13.2075 16.8192 12.6368 16.8259C11.6879 16.8692 11.4033 16.8784 9 16.8784C6.59674 16.8784 6.31213 16.8692 5.36322 16.8259C4.79253 16.8192 4.22724 16.7143 3.69208 16.516C3.30115 16.3718 2.94753 16.1417 2.65723 15.8428C2.3583 15.5525 2.12825 15.1989 1.984 14.8079C1.78566 14.2728 1.68081 13.7075 1.67406 13.1368C1.6308 12.1877 1.62164 11.9031 1.62164 9.5C1.62164 7.09686 1.6308 6.81226 1.67407 5.86322C1.68083 5.29253 1.78567 4.72724 1.984 4.19208C2.12824 3.80115 2.35829 3.44753 2.65722 3.15723C2.94752 2.8583 3.30115 2.62825 3.69208 2.484C4.22724 2.28566 4.79253 2.18082 5.36322 2.17406C6.31226 2.1308 6.59686 2.12164 9 2.12164C11.4031 2.12164 11.6877 2.1308 12.6368 2.17407C13.2075 2.18083 13.7728 2.28567 14.3079 2.48401C14.6989 2.62825 15.0525 2.8583 15.3428 3.15723C15.6417 3.44753 15.8718 3.80115 16.016 4.19208C16.2143 4.72724 16.3192 5.29253 16.3259 5.86322C16.3692 6.81222 16.3784 7.09692 16.3784 9.5C16.3784 11.9031 16.3692 12.1877 16.3259 13.1368ZM9 4.87836C6.44754 4.87836 4.37836 6.94754 4.37836 9.5C4.37836 12.0525 6.44754 14.1216 9 14.1216C11.5525 14.1216 13.6216 12.0525 13.6216 9.5C13.6216 6.94755 11.5525 4.87839 9 4.87836ZM9 12.5C7.34315 12.5 6 11.1569 6 9.5C6 7.84315 7.34315 6.5 9 6.5C10.6569 6.5 12 7.84315 12 9.5C12 10.2956 11.6839 11.0587 11.1213 11.6213C10.5587 12.1839 9.79565 12.5 9 12.5ZM14.8842 4.6958C14.8842 5.29227 14.4007 5.7758 13.8042 5.7758C13.2078 5.7758 12.7242 5.29227 12.7242 4.6958C12.7242 4.09933 13.2078 3.6158 13.8042 3.6158C14.4007 3.6158 14.8842 4.09933 14.8842 4.6958Z" fill="#3D3D3D"/>
</g>
<defs>
<clipPath id="clip0_45_594">
<rect width="18" height="18" fill="white" transform="translate(0 0.5)"/>
</clipPath>
</defs>
</svg>
