<svg width="18" height="18" viewBox="0 0 18 18" fill="none" xmlns="http://www.w3.org/2000/svg">
<path d="M17.9459 5.28931C17.9309 4.54269 17.7895 3.80401 17.5275 3.10468C17.3015 2.50414 16.9473 1.96012 16.4894 1.51056C16.0399 1.05272 15.4959 0.698461 14.8953 0.47247C14.196 0.210542 13.4573 0.0690936 12.7107 0.05414C11.7507 0.01038 11.4443 0 9 0C6.55573 0 6.24927 0.01038 5.28931 0.05414C4.54269 0.0690936 3.80401 0.210542 3.10468 0.47247C2.50414 0.698461 1.96012 1.05272 1.51056 1.51056C1.05272 1.96012 0.698461 2.50414 0.47247 3.10468C0.210542 3.80401 0.0690936 4.54269 0.05414 5.28931C0.01038 6.24927 0 6.55573 0 9C0 11.4443 0.01038 11.7507 0.05414 12.7107C0.0690936 13.4573 0.210542 14.196 0.47247 14.8953C0.698461 15.4959 1.05272 16.0399 1.51056 16.4894C1.96011 16.9473 2.50413 17.3016 3.10468 17.5275C3.80401 17.7895 4.54269 17.9309 5.28931 17.9459C6.24927 17.9897 6.55573 18 9 18C11.4443 18 11.7507 17.9897 12.7107 17.9459C13.4573 17.9309 14.196 17.7895 14.8953 17.5275C16.1043 17.06 17.06 16.1043 17.5275 14.8953C17.7894 14.196 17.9309 13.4573 17.9459 12.7107C17.9896 11.7507 18 11.4443 18 9C18 6.55573 17.9896 6.24927 17.9459 5.28931ZM16.3259 12.6368C16.3192 13.2075 16.2143 13.7728 16.016 14.3079C15.7132 15.0928 15.0928 15.7133 14.3079 16.016C13.7728 16.2143 13.2075 16.3192 12.6368 16.3259C11.6879 16.3692 11.4033 16.3784 9 16.3784C6.59674 16.3784 6.31213 16.3692 5.36322 16.3259C4.79253 16.3192 4.22724 16.2143 3.69208 16.016C3.30115 15.8718 2.94753 15.6417 2.65723 15.3428C2.3583 15.0525 2.12825 14.6989 1.984 14.3079C1.78566 13.7728 1.68081 13.2075 1.67406 12.6368C1.6308 11.6877 1.62164 11.4031 1.62164 9C1.62164 6.59686 1.6308 6.31226 1.67407 5.36322C1.68083 4.79253 1.78567 4.22724 1.984 3.69208C2.12824 3.30115 2.35829 2.94753 2.65722 2.65723C2.94752 2.3583 3.30115 2.12825 3.69208 1.984C4.22724 1.78566 4.79253 1.68082 5.36322 1.67406C6.31226 1.6308 6.59686 1.62164 9 1.62164C11.4031 1.62164 11.6877 1.6308 12.6368 1.67407C13.2075 1.68083 13.7728 1.78567 14.3079 1.98401C14.6989 2.12825 15.0525 2.3583 15.3428 2.65723C15.6417 2.94753 15.8718 3.30115 16.016 3.69208C16.2143 4.22724 16.3192 4.79253 16.3259 5.36322C16.3692 6.31222 16.3784 6.59692 16.3784 9C16.3784 11.4031 16.3692 11.6877 16.3259 12.6368ZM9 4.37836C6.44754 4.37836 4.37836 6.44754 4.37836 9C4.37836 11.5525 6.44754 13.6216 9 13.6216C11.5525 13.6216 13.6216 11.5525 13.6216 9C13.6216 6.44755 11.5525 4.37839 9 4.37836ZM9 12C7.34315 12 6 10.6569 6 9C6 7.34315 7.34315 6 9 6C10.6569 6 12 7.34315 12 9C12 9.79565 11.6839 10.5587 11.1213 11.1213C10.5587 11.6839 9.79565 12 9 12ZM14.8842 4.1958C14.8842 4.79227 14.4007 5.2758 13.8042 5.2758C13.2078 5.2758 12.7242 4.79227 12.7242 4.1958C12.7242 3.59933 13.2078 3.1158 13.8042 3.1158C14.4007 3.1158 14.8842 3.59933 14.8842 4.1958Z" fill="white"/>
</svg>
