<svg width="134" height="28" viewBox="0 0 134 28" fill="none" xmlns="http://www.w3.org/2000/svg">
<path d="M113.471 18.9014H98.92C98.9065 19.4822 98.9892 20.0611 99.1648 20.6149C99.4148 21.5169 99.939 22.3189 100.665 22.9102C101.391 23.5015 102.282 23.8529 103.216 23.9157C104.279 24.0515 105.359 23.9372 106.37 23.5819C107.266 23.2505 108 22.5862 108.418 21.7275C108.477 21.594 108.537 21.5198 108.707 21.5421L113.16 22.091C113.16 22.091 113.211 22.091 113.263 22.1281C113.017 22.8454 112.675 23.5265 112.247 24.1531C111.074 25.8782 109.284 27.0886 107.246 27.5355C104.824 28.1751 102.267 28.0796 99.8994 27.261C98.3632 26.7466 96.9954 25.825 95.9421 24.5944C94.8888 23.3638 94.1895 21.8705 93.9187 20.2737C93.3762 17.9438 93.5787 15.5025 94.4975 13.2937C95.065 11.8597 95.989 10.5942 97.1823 9.61677C98.3756 8.63939 99.7986 7.98252 101.317 7.70827C103.582 7.18609 105.953 7.3858 108.099 8.27942C109.376 8.80768 110.505 9.64004 111.387 10.704C112.269 11.768 112.878 13.0313 113.16 14.3841C113.534 15.8589 113.64 17.3892 113.471 18.9014ZM108.655 15.4522C108.643 14.7775 108.475 14.1146 108.165 13.5151C107.855 12.9156 107.411 12.3957 106.867 11.9956C105.834 11.3332 104.608 11.0404 103.387 11.1649C102.391 11.1922 101.433 11.5527 100.666 12.1888C99.8991 12.8249 99.368 13.6998 99.1574 14.6734C99.1055 14.9256 99.0684 15.1778 99.0164 15.4522H108.655Z" fill="black"/>
<path d="M56.6613 17.6923C56.6647 15.7402 57.1571 13.82 58.0935 12.1069C59.2572 10.0863 61.1675 8.6028 63.4138 7.97529C66.012 7.14342 68.8217 7.26438 71.3387 8.3165C72.6472 8.82526 73.8138 9.64161 74.7399 10.6965C75.666 11.7513 76.3243 13.0137 76.659 14.3767C77.2867 16.6528 77.2559 19.0602 76.57 21.3195C76.183 22.7157 75.4548 23.9937 74.451 25.0386C73.4471 26.0835 72.1991 26.8625 70.8193 27.3055C68.0483 28.3207 64.9912 28.2196 62.2934 27.0237C60.9072 26.4463 59.6916 25.5246 58.7618 24.3459C57.832 23.1672 57.2188 21.7706 56.9804 20.2885C56.8172 19.4503 56.7726 18.5676 56.6613 17.6923ZM71.8804 17.989C71.918 16.9052 71.7441 15.8243 71.3684 14.8069C71.0231 13.9096 70.4115 13.1395 69.6157 12.5998C68.8198 12.0602 67.8778 11.7769 66.9162 11.7879C65.9522 11.7661 65.0054 12.0451 64.2074 12.5861C63.4095 13.1272 62.8001 13.9035 62.464 14.8069C61.935 16.21 61.7991 17.7309 62.0707 19.2055C62.2162 20.2883 62.6813 21.3032 63.4064 22.1207C63.8841 22.6439 64.476 23.0499 65.1362 23.3072C65.7964 23.5645 66.5071 23.6661 67.213 23.6042C67.9563 23.594 68.6853 23.3979 69.3334 23.0339C69.9814 22.6698 70.528 22.1493 70.9231 21.5198C71.5731 20.4585 71.9053 19.2332 71.8804 17.989Z" fill="black"/>
<path d="M34.3634 7.88628H39.5576V10.8978C39.6169 10.8459 39.6466 10.8311 39.654 10.8088C40.0386 9.992 40.6143 9.27975 41.3324 8.73233C42.0505 8.1849 42.89 7.81839 43.7797 7.66376C45.7249 7.20239 47.7688 7.40878 49.5824 8.24973C50.3596 8.64408 51.0432 9.20034 51.5872 9.88105C52.1312 10.5618 52.5229 11.3511 52.736 12.1959C53.1566 13.6588 53.3542 15.1766 53.3222 16.6984C53.3222 20.2366 53.3222 23.7673 53.3222 27.3055C53.3222 27.3723 53.3222 27.4465 53.3222 27.5355H48.128V17.3437C48.1494 16.3873 48.0319 15.4329 47.7792 14.5102C47.5949 13.8083 47.1951 13.1818 46.6361 12.7188C46.077 12.2557 45.3869 11.9795 44.6627 11.9289C43.8656 11.8181 43.054 11.8762 42.2808 12.0995C41.7072 12.2704 41.1908 12.594 40.787 13.0356C40.3831 13.4772 40.1069 14.0202 39.9879 14.6066C39.7711 15.4181 39.6491 16.252 39.6243 17.0915C39.6243 20.4443 39.6243 23.7673 39.6243 27.1423V27.5207H34.4301L34.3634 7.88628Z" fill="black"/>
<path d="M115.63 22.536L116.996 22.2987C118.057 22.1207 119.118 21.9426 120.179 21.7795C120.236 21.7732 120.294 21.7799 120.348 21.7992C120.402 21.8185 120.451 21.8498 120.491 21.8907C120.813 22.4642 121.263 22.9559 121.806 23.3276C122.349 23.6994 122.971 23.9412 123.622 24.0344C124.808 24.2962 126.042 24.2399 127.199 23.8712C127.535 23.7953 127.846 23.6368 128.105 23.4102C128.364 23.1835 128.563 22.8958 128.683 22.5731C128.809 22.2014 128.795 21.7965 128.643 21.4345C128.491 21.0725 128.213 20.7784 127.859 20.6075C127.059 20.1905 126.197 19.905 125.307 19.7619C123.822 19.4355 122.338 19.1536 120.921 18.7827C119.687 18.4976 118.558 17.8703 117.664 16.9729C117.208 16.4844 116.86 15.9061 116.641 15.275C116.423 14.6439 116.339 13.974 116.395 13.3086C116.436 12.338 116.745 11.3977 117.287 10.5915C117.829 9.78518 118.583 9.14423 119.467 8.73932C121.415 7.74932 123.606 7.33749 125.781 7.5525C127.337 7.64119 128.856 8.06369 130.234 8.79125C131.631 9.48419 132.741 10.6441 133.372 12.0698C133.424 12.1959 133.461 12.3294 133.513 12.4778L130.248 13.0564C129.84 13.1305 129.432 13.2121 129.017 13.2715C128.972 13.2747 128.928 13.2677 128.887 13.251C128.846 13.2342 128.809 13.2083 128.779 13.175C128.443 12.5793 127.956 12.0822 127.368 11.7334C126.779 11.3846 126.109 11.1962 125.425 11.1871C124.524 11.0856 123.612 11.2079 122.769 11.5432C122.347 11.6787 121.992 11.967 121.772 12.3513C121.552 12.7356 121.484 13.1882 121.582 13.6201C121.643 13.8456 121.752 14.0552 121.902 14.2345C122.052 14.4138 122.239 14.5584 122.45 14.6586C123.145 15.0275 123.898 15.2782 124.676 15.4003C126.249 15.7119 127.822 15.9863 129.388 16.3275C130.34 16.5406 131.241 16.9416 132.037 17.5069C132.542 17.8597 132.968 18.3135 133.289 18.8396C133.609 19.3656 133.817 19.9525 133.899 20.563C134.067 21.4346 134.025 22.3338 133.774 23.1855C133.524 24.0372 133.073 24.8166 132.46 25.4586C131.632 26.3195 130.594 26.9487 129.447 27.2833C126.47 28.2575 123.254 28.2132 120.305 27.1572C118.566 26.5982 117.095 25.4176 116.172 23.8415C115.987 23.4336 115.838 23.0182 115.63 22.536Z" fill="black"/>
<path d="M30.9649 23.6635L31.6475 27.5503C31.1133 27.6319 30.6161 27.7209 30.1115 27.7729C28.5271 27.9712 26.9203 27.8934 25.3625 27.5429C24.1999 27.3201 23.1372 26.7363 22.3259 25.8746C21.5145 25.0129 20.9958 23.9173 20.8436 22.7437C20.6583 21.6855 20.5615 20.6136 20.5542 19.5393C20.5097 17.0989 20.5542 14.666 20.5542 12.2256V11.8473H17.8013V7.88628H20.5542V7.54508C20.5542 6.59563 20.5542 5.65359 20.5542 4.71155C20.5542 4.42968 20.6136 4.31101 20.9178 4.25166C22.5057 3.94013 24.0863 3.59149 25.6742 3.26511C25.7283 3.25709 25.7833 3.25709 25.8375 3.26511V7.87145H31.1949V11.8324H25.8449V12.1514C25.8449 14.6585 25.8449 17.1657 25.8449 19.6728C25.8644 20.382 25.9665 21.0865 26.1491 21.772C26.2672 22.2929 26.555 22.7598 26.9673 23.0995C27.3796 23.4391 27.8931 23.6323 28.4271 23.6487C29.2359 23.7228 30.067 23.6635 30.9649 23.6635Z" fill="black"/>
<path d="M91.5516 23.5745L92.2417 27.5503C91.7149 27.6319 91.2177 27.7135 90.7206 27.7729C89.1235 27.9725 87.5039 27.8922 85.9344 27.5355C84.7779 27.3086 83.722 26.7238 82.9163 25.8638C82.1106 25.0038 81.5959 23.9123 81.4452 22.7437C81.2571 21.6882 81.1578 20.6188 81.1483 19.5467C81.1112 17.1064 81.1483 14.666 81.1483 12.233V11.8473H78.3954V7.87886H81.1113V6.57338C81.1113 5.90579 81.1113 5.23078 81.1113 4.56319C81.1113 4.40742 81.1112 4.31842 81.3116 4.28874L86.3055 3.25029H86.4242V7.85661H91.7668V11.8176H86.439C86.439 11.9363 86.439 12.0253 86.439 12.1143C86.439 14.6215 86.439 17.1286 86.439 19.6432C86.4594 20.3963 86.5741 21.1439 86.7804 21.8685C86.9086 22.3661 87.195 22.8086 87.5964 23.1297C87.9978 23.4507 88.4926 23.6328 89.0065 23.6487C89.7133 23.6894 90.4218 23.6894 91.1287 23.6487L91.5516 23.5745Z" fill="black"/>
<path d="M5.23873 27.5503H0V1.50715H5.23873V27.5503Z" fill="black"/>
<path d="M9.69828 7.88629H14.8925V27.5429H9.69828V7.88629Z" fill="black"/>
<path d="M15.2858 2.67916C15.2932 3.30591 15.0708 3.91368 14.6607 4.38784C14.2507 4.862 13.6812 5.16977 13.0597 5.25306C12.3677 5.38881 11.6516 5.33237 10.9894 5.08987C10.4807 4.91673 10.043 4.58108 9.744 4.1347C9.44496 3.68831 9.30113 3.15598 9.33469 2.6198C9.31675 2.09348 9.47171 1.57579 9.77589 1.14581C10.0801 0.715839 10.5167 0.397252 11.0191 0.23876C11.8632 -0.0795867 12.7944 -0.0795867 13.6385 0.23876C14.1414 0.4108 14.5744 0.742229 14.8717 1.18269C15.169 1.62315 15.3144 2.14857 15.2858 2.67916Z" fill="black"/>
</svg>
