<svg width="59" height="28" viewBox="0 0 59 28" fill="none" xmlns="http://www.w3.org/2000/svg">
<path d="M10.2734 16.9161V0H0.0307662L0 27.4423L23.9556 27.4278L23.9882 16.907C23.4776 16.8906 10.8329 16.9161 10.2734 16.9161Z" fill="black"/>
<path d="M58.0934 15.5524C58.089 12.9609 57.0739 10.474 55.2652 8.62326L50.985 4.24353C49.6739 2.90095 48.1088 1.83438 46.3814 1.10632C44.654 0.378257 42.799 0.00336033 40.9252 0.00362376H27.7838C27.6665 0.00362277 27.5539 0.0502551 27.4708 0.133293C27.3876 0.21633 27.3407 0.32902 27.3402 0.446692V26.9956C27.3407 27.1133 27.3876 27.226 27.4708 27.309C27.5539 27.392 27.6665 27.4387 27.7838 27.4387H37.1573C37.2745 27.4387 37.3868 27.392 37.4697 27.3089C37.5526 27.2258 37.5991 27.1131 37.5991 26.9956V10.2902H39.7465C41.1809 10.2898 42.5581 10.8545 43.5814 11.8627L46.0076 14.2541C46.5937 14.8318 47.0592 15.5208 47.3769 16.2809C47.6946 17.041 47.8582 17.8569 47.8581 18.681V26.9938C47.8581 27.1113 47.9046 27.224 47.9874 27.3071C48.0703 27.3902 48.1827 27.4368 48.2998 27.4368H57.6734C57.791 27.4368 57.9039 27.39 57.987 27.3065C58.0702 27.2231 58.1169 27.11 58.1169 26.992L58.0934 15.5524Z" fill="black"/>
<path d="M27.3355 23.8118H37.5863V27.4423H27.3355V23.8118Z" fill="black"/>
<path d="M47.8372 23.8118H58.088V27.4423H47.8372V23.8118Z" fill="black"/>
<path d="M27.3355 0H37.5863V3.6305H27.3355V0Z" fill="black"/>
</svg>
