<svg width="20" height="19" viewBox="0 0 20 19" fill="none" xmlns="http://www.w3.org/2000/svg">
<path d="M17.316 5.746C17.324 5.908 17.327 6.072 17.327 6.234C17.327 11.224 13.53 16.976 6.58705 16.976C4.45405 16.976 2.47105 16.351 0.800049 15.279C1.09605 15.314 1.39605 15.332 1.70005 15.332C3.47005 15.332 5.09705 14.728 6.38805 13.717C4.73705 13.686 3.34205 12.596 2.86205 11.096C3.09205 11.139 3.32905 11.162 3.57205 11.162C3.91705 11.162 4.25105 11.117 4.56705 11.031C2.84005 10.683 1.53905 9.158 1.53905 7.328C1.53905 7.312 1.53905 7.297 1.53905 7.281C2.04805 7.564 2.63105 7.734 3.24905 7.754C2.23605 7.076 1.56905 5.922 1.56905 4.611C1.56905 3.92 1.75505 3.271 2.08105 2.713C3.94205 4.998 6.72505 6.5 9.86205 6.658C9.79805 6.381 9.76505 6.094 9.76505 5.797C9.76505 3.713 11.454 2.024 13.539 2.024C14.625 2.024 15.606 2.481 16.295 3.215C17.154 3.045 17.962 2.731 18.692 2.299C18.41 3.18 17.811 3.92 17.032 4.387C17.796 4.295 18.5221 4.094 19.2001 3.793C18.694 4.551 18.0541 5.215 17.316 5.746Z" fill="#3D3D3D"/>
</svg>
