<svg width="20" height="16" viewBox="0 0 20 16" fill="none" xmlns="http://www.w3.org/2000/svg">
<path d="M17.316 4.24593C17.324 4.40793 17.327 4.57193 17.327 4.73393C17.327 9.72393 13.53 15.4759 6.58705 15.4759C4.45405 15.4759 2.47105 14.8509 0.800049 13.7789C1.09605 13.8139 1.39605 13.8319 1.70005 13.8319C3.47005 13.8319 5.09705 13.2279 6.38805 12.2169C4.73705 12.1859 3.34205 11.0959 2.86205 9.59593C3.09205 9.63893 3.32905 9.66193 3.57205 9.66193C3.91705 9.66193 4.25105 9.61693 4.56705 9.53093C2.84005 9.18293 1.53905 7.65793 1.53905 5.82793C1.53905 5.81193 1.53905 5.79693 1.53905 5.78093C2.04805 6.06393 2.63105 6.23393 3.24905 6.25393C2.23605 5.57593 1.56905 4.42193 1.56905 3.11093C1.56905 2.41993 1.75505 1.77093 2.08105 1.21293C3.94205 3.49793 6.72505 4.99993 9.86205 5.15793C9.79805 4.88093 9.76505 4.59393 9.76505 4.29693C9.76505 2.21293 11.454 0.523926 13.539 0.523926C14.625 0.523926 15.606 0.980926 16.295 1.71493C17.154 1.54493 17.962 1.23093 18.692 0.798926C18.41 1.67993 17.811 2.41993 17.032 2.88693C17.796 2.79493 18.5221 2.59393 19.2001 2.29293C18.694 3.05093 18.0541 3.71493 17.316 4.24593Z" fill="white"/>
</svg>
